<svg xmlns="http://www.w3.org/2000/svg" version="1.1" viewBox="0 0 24 24"><path d="M 22,2 v 2.748 c 0,0.203 -0.03,0.396 -0.091,0.578 -0.061,0.183 -0.146,0.351 -0.257,0.504 -0.11,0.154 -0.242,0.29 -0.396,0.409 -0.154,0.119 -0.323,0.213 -0.509,0.283 v -0.27 c 0,-0.597 -0.13,3.154 -0.391,3.67 -0.261,0.516 -0.626,0.957 -1.096,1.322 0.174,0.174 0.338,0.343 0.491,0.509 0.154,0.165 0.287,0.338 0.4,0.517 0.113,0.18 0.203,0.374 0.27,0.583 0.067,0.209 0.1,0.446 0.1,0.713 0,0.168 -0.017,0.333 -0.052,0.496 0.186,0.359 0.278,0.745 0.278,1.157 0,0.429 -0.087,0.799 -0.261,1.109 -0.174,0.31 -0.409,0.613 -0.704,0.909 L 15.017,22 H 2 V 17.626 L 13.878,5.748 c 0.191,0.214 0.384,0.423 0.578,0.626 0.194,0.203 0.37,0.414 0.526,0.635 0.157,0.22 0.286,0.457 0.387,0.709 0.101,0.252 0.152,0.535 0.152,0.848 0,0.168 -0.017,0.333 -0.052,0.496 L 15.53,9.2 15.861,8.878 H 17 V 6.513 C 16.809,6.443 16.636,6.351 16.483,6.235 16.329,6.119 16.199,5.984 16.091,5.83 15.984,5.677 15.9,5.509 15.839,5.326 15.778,5.143 15.748,4.951 15.748,4.748 V 2 Z m -2.496,13.226 c 0,-0.133 -0.023,-0.27 -0.07,-0.409 l -2.122,2.13 -1.383,-1.383 -3.817,3.817 c -0.041,0.041 -0.087,0.07 -0.139,0.087 -0.052,0.017 -0.104,0.026 -0.157,0.026 -0.116,0 -0.219,-0.043 -0.309,-0.13 -0.09,-0.087 -0.135,-0.188 -0.135,-0.304 0,-0.052 0.01,-0.106 0.03,-0.161 0.02,-0.055 0.048,-0.1 0.083,-0.135 l 4.887,-4.887 c 0.174,-0.174 0.322,-0.345 0.443,-0.513 0.122,-0.168 0.183,-0.383 0.183,-0.643 0,-0.133 -0.023,-0.27 -0.07,-0.409 -0.023,0.035 -0.084,0.104 -0.183,0.209 -0.099,0.104 -0.217,0.228 -0.357,0.37 -0.139,0.142 -0.291,0.294 -0.457,0.457 -0.165,0.162 -0.322,0.316 -0.47,0.461 -0.148,0.145 -0.281,0.275 -0.4,0.391 -0.119,0.116 -0.201,0.197 -0.248,0.243 -0.238,-0.22 -0.47,-0.446 -0.696,-0.678 -0.226,-0.232 -0.455,-0.464 -0.687,-0.696 l -5.07,5.07 c -0.035,0.035 -0.08,0.062 -0.135,0.083 -0.055,0.02 -0.109,0.03 -0.161,0.03 -0.122,0 -0.226,-0.043 -0.313,-0.13 -0.087,-0.087 -0.13,-0.191 -0.13,-0.313 0,-0.052 0.009,-0.104 0.026,-0.157 0.017,-0.052 0.046,-0.099 0.087,-0.139 l 6.139,-6.139 c 0.087,-0.087 0.168,-0.171 0.243,-0.252 0.075,-0.081 0.142,-0.167 0.2,-0.257 0.058,-0.09 0.103,-0.187 0.135,-0.291 0.032,-0.104 0.048,-0.223 0.048,-0.357 0,-0.128 -0.023,-0.261 -0.07,-0.4 l -2.122,2.13 -1.383,-1.383 -7.678,7.687 v 2.496 h 11.25 l 4.382,-4.373 c 0.351,-0.375 0.315,-0.338 0.439,-0.509 0.125,-0.171 0.187,-0.384 0.187,-0.639 z M 20.748,3.252 H 17 v 1.496 c 0,0.139 0.028,0.251 0.083,0.335 0.055,0.084 0.126,0.148 0.213,0.191 0.087,0.043 0.186,0.071 0.296,0.083 0.11,0.012 0.223,0.017 0.339,0.017 h 0.322 v 0 h 1.252 v 0 h 0.33 c 0.11,0 0.22,-0.006 0.33,-0.017 0.11,-0.012 0.209,-0.039 0.296,-0.083 0.087,-0.043 0.157,-0.107 0.209,-0.191 0.052,-0.084 0.078,-0.196 0.078,-0.335 z m -3.983,7.826 c 0,-0.104 -0.015,-0.214 -0.044,-0.33 H 17 c 0.348,0 0.674,-0.065 0.978,-0.196 0.304,-0.13 0.57,-0.309 0.796,-0.535 C 19,9.791 19.178,9.527 19.309,9.226 19.439,8.925 19.505,6.348 19.505,6 h -1.252 v 2.878 c 0,0.174 -0.033,0.336 -0.1,0.487 -0.067,0.151 -0.157,0.283 -0.27,0.396 -0.113,0.113 -0.245,0.201 -0.396,0.265 -0.151,0.064 -0.313,0.096 -0.487,0.096 h -0.626 l -2.496,2.504 0.939,0.939 L 16.374,12 c 0.261,-0.261 0.391,-0.568 0.391,-0.922 z m -5.391,-0.957 0.939,0.939 1.565,-1.557 C 14,9.383 14.094,9.238 14.161,9.07 c 0.067,-0.168 0.1,-0.336 0.1,-0.504 0,-0.174 -0.033,-0.343 -0.1,-0.509 C 14.094,7.891 14,7.748 13.878,7.626 Z m 7.887,3.443 c 0,-0.371 -0.128,-0.684 -0.383,-0.939 l -2.504,2.504 0.939,0.93 1.565,-1.557 c 0.122,-0.119 0.216,-0.264 0.283,-0.432 0.067,-0.168 0.1,-0.336 0.1,-0.504 z" fill="#000000" /><path d="m 3.252,19.494 6e-5,-1.242 3.852,-3.835 3.834,-3.834 0.692,0.692 0.692,0.692 1.045,-1.062 c 0.575,-0.584 1.053,-1.057 1.062,-1.051 0.033,0.02 0.071,0.33 0.059,0.475 -0.015,0.179 -0.071,0.35 -0.171,0.521 -0.058,0.1 -0.829,0.884 -3.351,3.411 -2.323,2.327 -3.285,3.305 -3.31,3.364 -0.115,0.278 0.063,0.593 0.355,0.628 0.231,0.027 0.064,0.18 2.852,-2.606 l 2.567,-2.565 0.675,0.68 c 0.404,0.407 0.689,0.677 0.709,0.672 0.042,-0.009 1.59,-1.528 1.889,-1.853 0.121,-0.132 0.225,-0.232 0.23,-0.223 0.006,0.009 0.022,0.085 0.037,0.168 0.03,0.172 0.016,0.386 -0.037,0.565 -0.08,0.271 -0.107,0.301 -2.861,3.06 -1.443,1.446 -2.639,2.66 -2.657,2.697 -0.085,0.169 -0.064,0.351 0.055,0.487 0.125,0.143 0.275,0.189 0.485,0.15 0.062,-0.012 0.392,-0.331 2.025,-1.961 l 1.95,-1.947 0.691,0.69 0.691,0.69 1.049,-1.05 C 18.939,15.332 19.412,14.85 19.42,14.85 c 0.034,0 0.083,0.266 0.072,0.454 -0.007,0.125 -0.043,0.374 -0.189,0.56 C 19.138,16.073 18.982,16.27 18.878,16.374 c -0.493,0.494 -0.503,0.492 -2.074,2.064 L 14.496,20.748 8.877,20.748 3.252,20.748 z" fill="#FFD740" /><path d="M 18.26,5.371 17.877,5.374 C 17.461,5.358 17.315,5.322 17.17,5.185 17.019,5.032 17,4.954 17,4.584 V 3.252 h 1.884 1.867 L 20.742,4.59 C 20.739,4.96 20.722,5.036 20.58,5.185 20.447,5.307 20.291,5.354 19.887,5.369 h -0.383 z m -4.382,2.256 -2.504,2.495 0.939,0.939 0.85,-0.854 C 13.578,9.792 13.998,9.409 14.104,9.173 14.184,8.995 14.213,8.945 14.241,8.706 14.276,8.411 14.201,8.063 14.035,7.835 Z M 18.252,6 18.26,6.496 c -0.011,0.319 -0.012,1.571 0,2.367 C 18.265,9.186 18.136,9.426 18.102,9.488 18.039,9.603 17.971,9.679 17.894,9.76 17.782,9.878 17.65,9.982 17.484,10.039 17.314,10.098 17.244,10.129 16.985,10.14 l -0.608,-0.01 -1.257,1.263 -1.242,1.233 0.939,0.939 c 0,0 0.427,-0.441 0.893,-0.912 0.293,-0.295 0.483,-0.488 0.644,-0.653 0.342,-0.35 0.372,-0.584 0.398,-0.951 L 16.706,10.731 17.004,10.733 c 0.598,0.004 0.901,-0.148 1.205,-0.305 0.293,-0.153 0.423,-0.277 0.613,-0.475 C 19.063,9.702 19.18,9.499 19.302,9.205 19.377,9.025 19.442,8.353 19.495,6.293 19.548,4.233 19.504,6 19.504,6 h -0.623 z m 0.626,6.625 -2.507,2.475 0.942,0.959 0.871,-0.902 c 0.311,-0.314 0.553,-0.522 0.69,-0.673 C 19.076,14.261 19.11,14.162 19.16,14.026 c 0.052,-0.141 0.09,-0.353 0.09,-0.473 0,-0.242 -0.082,-0.569 -0.279,-0.793 z" fill="#e91e63" /></svg>